# WaveFront *.obj file (generated by Autodesk ATF)

mtllib fdf99636-b61a-4d2a-a060-b429899a0544.mtl

g Body3

v -1.000000 80.000000 2.000000
v -0.741181 80.000000 1.965926
v -0.500000 80.000000 1.866025
v -0.292893 80.000000 1.707107
v -0.133975 80.000000 1.500000
v -0.034074 80.000000 1.258819
v -0.000000 80.000000 1.000000
v -0.034074 80.000000 0.741181
v -0.133975 80.000000 0.500000
v -0.292893 80.000000 0.292893
v -0.500000 80.000000 0.133975
v -0.741181 80.000000 0.034074
v -1.000000 80.000000 0.000000
v -1.000000 159.000000 0.000000
v -0.741181 159.000000 0.034074
v -0.500000 159.000000 0.133975
v -0.292893 159.000000 0.292893
v -0.133975 159.000000 0.500000
v -0.034074 159.000000 0.741181
v 0.000000 159.000000 1.000000
v -0.034074 159.000000 1.258819
v -0.133975 159.000000 1.500000
v -0.292893 159.000000 1.707107
v -0.500000 159.000000 1.866025
v -0.741181 159.000000 1.965926
v -1.000000 159.000000 2.000000
v -1.000000 159.258819 0.034074
v -1.000000 159.500000 0.133975
v -1.000000 159.707107 0.292893
v -1.000000 159.866025 0.500000
v -1.000000 159.965926 0.741181
v -1.000000 160.000000 1.000000
v -1.000000 159.965926 1.258819
v -1.000000 159.866025 1.500000
v -1.000000 159.707107 1.707107
v -1.000000 159.500000 1.866025
v -1.000000 159.258819 1.965926
v -0.841800 159.673143 0.277607
v -0.758643 159.916711 0.681587
v -0.803200 159.147260 1.969322
v -0.918332 159.299859 0.049519
v -0.778644 159.092297 0.029184
v -0.939573 159.578860 0.186815
v -0.760278 159.415381 0.122508
v -0.596086 159.225729 0.113490
v -0.457345 159.021854 0.160329
v -0.635240 159.535954 0.238617
v -0.451663 159.364996 0.247600
v -0.302636 159.171040 0.303991
v -0.093875 159.112081 0.592110
v -0.199322 159.316309 0.491214
v -0.355218 159.500607 0.422377
v -0.551740 159.653362 0.389934
v -0.776506 159.764951 0.395930
v -0.748143 159.848028 0.533720
v -0.515468 159.759605 0.566146
v -0.313322 159.623320 0.625908
v -0.154442 159.447762 0.709241
v -0.048839 159.243991 0.810894
v -0.003167 159.024847 0.924462
v -0.091558 159.201531 1.366221
v -0.142917 159.431914 1.280819
v -0.248285 159.635087 1.177734
v -0.401010 159.798240 1.063436
v -0.591459 159.911088 0.945104
v -0.807622 159.966514 0.830172
v -0.890769 159.993477 0.967244
v -0.697864 159.945611 1.120556
v -0.523997 159.838165 1.266272
v -0.380121 159.677907 1.395211
v -0.275302 159.474936 1.499248
v -0.216146 159.242041 1.571829
v -0.841891 159.949256 1.271872
v -0.690353 159.842375 1.441048
v -0.558325 159.682417 1.582434
v -0.454126 159.479462 1.687123
v -0.384321 159.246297 1.748517
v -0.888420 159.810396 1.575159
v -0.770498 159.648161 1.726096
v -0.667037 159.445087 1.831284
v -0.584555 159.213969 1.884094
v -0.899526 159.374154 1.921908
v -0.018845 159.127410 1.145267
v -0.065510 159.353048 1.045679
v -0.171056 159.556441 0.943213
v -0.328831 159.724774 0.844324
v -0.528895 159.847440 0.755245
v -80.000000 80.000000 2.000000
v -80.000000 159.000000 2.000000
v -80.000000 159.000000 0.000000
v -80.000000 159.258819 0.034074
v -80.000000 159.500000 0.133975
v -80.000000 159.707107 0.292893
v -80.000000 159.866025 0.500000
v -80.000000 159.965926 0.741181
v -80.000000 160.000000 1.000000
v -80.000000 159.965926 1.258819
v -80.000000 159.866025 1.500000
v -80.000000 159.707107 1.707107
v -80.000000 159.500000 1.866025
v -80.000000 159.258819 1.965926
v -80.000000 80.000000 0.000000
vt 11.900000 0.235619 0.000000
vt 4.000000 0.235619 0.000000
vt 11.900000 0.209440 0.000000
vt 4.000000 0.209440 0.000000
vt 11.900000 0.183260 0.000000
vt 4.000000 0.183260 0.000000
vt 11.900000 0.157080 0.000000
vt 4.000000 0.157080 0.000000
vt 11.900000 0.130900 0.000000
vt 4.000000 0.130900 0.000000
vt 11.900000 0.104720 0.000000
vt 4.000000 0.104720 0.000000
vt 11.900000 0.078540 0.000000
vt 4.000000 0.078540 0.000000
vt 11.900000 0.052360 0.000000
vt 4.000000 0.052360 0.000000
vt 11.900000 0.026180 0.000000
vt 4.000000 0.026180 0.000000
vt 11.900000 -0.000000 0.000000
vt 4.000000 -0.000000 0.000000
vt 11.900000 -0.026180 0.000000
vt 4.000000 -0.026180 0.000000
vt 11.900000 -0.052360 0.000000
vt 4.000000 -0.052360 0.000000
vt 11.900000 -0.078540 0.000000
vt 4.000000 -0.078540 0.000000
vt 0.029284 -0.194089 0.000000
vt 0.042053 -0.217655 0.000000
vt 0.039123 -0.192392 0.000000
vt 0.065060 -0.203568 0.000000
vt 0.064291 -0.192392 0.000000
vt 0.086609 -0.183646 0.000000
vt 0.064291 -0.167128 0.000000
vt 0.089459 -0.167128 0.000000
vt 0.064291 -0.141865 0.000000
vt 0.089459 -0.141865 0.000000
vt 0.064291 -0.116601 0.000000
vt 0.089459 -0.116601 0.000000
vt 0.064291 -0.091338 0.000000
vt 0.089459 -0.091338 0.000000
vt 0.064291 -0.066075 0.000000
vt 0.089459 -0.066075 0.000000
vt 0.064291 -0.040707 0.000000
vt 0.089459 -0.040686 0.000000
vt 0.064291 -0.015548 0.000000
vt 0.089459 -0.015548 0.000000
vt 0.064291 0.009715 0.000000
vt 0.075188 0.024439 0.000000
vt 0.052705 0.040667 0.000000
vt 0.104720 -0.151580 0.000000
vt 0.114626 -0.099592 0.000000
vt 0.110695 -0.040667 0.000000
vt 0.095532 0.000000 0.000000
vt 0.029284 0.053023 0.000000
vt 0.039123 0.034979 0.000000
vt 0.039123 0.009715 0.000000
vt 0.013955 0.034979 0.000000
vt 0.005472 0.063711 0.000000
vt -0.011212 0.034979 0.000000
vt -0.011212 0.060242 0.000000
vt -0.036380 0.060242 0.000000
vt -0.018405 0.074118 0.000000
vt -0.042053 0.085506 0.000000
vt -0.052360 0.059393 0.000000
vt -0.036380 0.034979 0.000000
vt -0.011212 0.009715 0.000000
vt 0.013955 0.009715 0.000000
vt 0.013955 -0.015548 0.000000
vt 0.039123 -0.015548 0.000000
vt 0.039123 -0.040729 0.000000
vt -0.059159 0.030599 0.000000
vt -0.036380 0.009715 0.000000
vt -0.011212 -0.015548 0.000000
vt 0.013955 -0.040751 0.000000
vt 0.039123 -0.066075 0.000000
vt -0.061548 -0.000000 0.000000
vt -0.036380 -0.015548 0.000000
vt -0.011212 -0.040772 0.000000
vt 0.013955 -0.066075 0.000000
vt 0.039123 -0.091338 0.000000
vt -0.059159 -0.030599 0.000000
vt -0.036380 -0.040794 0.000000
vt -0.011212 -0.066075 0.000000
vt 0.013955 -0.091338 0.000000
vt 0.039123 -0.116601 0.000000
vt -0.052360 -0.059393 0.000000
vt -0.036380 -0.066075 0.000000
vt -0.011212 -0.091338 0.000000
vt 0.013955 -0.116601 0.000000
vt 0.039123 -0.141865 0.000000
vt -0.042053 -0.085506 0.000000
vt -0.036380 -0.091338 0.000000
vt -0.029284 -0.109071 0.000000
vt -0.011212 -0.116601 0.000000
vt -0.014999 -0.130796 0.000000
vt 0.013955 -0.141865 0.000000
vt 0.039123 -0.167128 0.000000
vt 0.000000 -0.151580 0.000000
vt 0.013955 -0.167128 0.000000
vt 0.014999 -0.172365 0.000000
vt 0.000000 0.000000 0.000000
vt 7.900000 0.000000 0.000000
vt 0.000000 7.900000 0.000000
vt 7.900000 7.900000 0.000000
vt -3.900000 -0.078540 0.000000
vt 4.000000 -0.078540 0.000000
vt -3.900000 -0.052360 0.000000
vt 4.000000 -0.052360 0.000000
vt -3.900000 -0.026180 0.000000
vt 4.000000 -0.026180 0.000000
vt -3.900000 0.000000 0.000000
vt 4.000000 0.000000 0.000000
vt -3.900000 0.026180 0.000000
vt 4.000000 0.026180 0.000000
vt -3.900000 0.052360 0.000000
vt 4.000000 0.052360 0.000000
vt -3.900000 0.078540 0.000000
vt 4.000000 0.078540 0.000000
vt -3.900000 0.104720 0.000000
vt 4.000000 0.104720 0.000000
vt -3.900000 0.130900 0.000000
vt 4.000000 0.130900 0.000000
vt -3.900000 0.157080 0.000000
vt 4.000000 0.157080 0.000000
vt -3.900000 0.183260 0.000000
vt 4.000000 0.183260 0.000000
vt -3.900000 0.209440 0.000000
vt 4.000000 0.209440 0.000000
vt -3.900000 0.235619 0.000000
vt 4.000000 0.235619 0.000000
vt 0.049794 0.000206 0.000000
vt -0.050206 8.000206 0.000000
vt -0.150206 0.000206 0.000000
vt -0.076088 7.996799 0.000000
vt -0.100206 7.986809 0.000000
vt 0.049794 7.900206 0.000000
vt 0.036396 7.950206 0.000000
vt 0.020504 7.970917 0.000000
vt -0.000206 7.986809 0.000000
vt 0.046386 7.926088 0.000000
vt -0.024325 7.996799 0.000000
vt -0.120917 7.970917 0.000000
vt -0.136809 7.950206 0.000000
vt -0.150206 7.900206 0.000000
vt -0.146799 7.926088 0.000000
vt -7.900000 0.000000 0.000000
vt -0.000000 0.000000 0.000000
vt -7.900000 7.900000 0.000000
vt -0.000000 7.900000 0.000000
vt 0.150206 -0.000000 0.000000
vt 0.050206 8.000000 0.000000
vt -0.049794 -0.000000 0.000000
vt 0.024325 7.996593 0.000000
vt 0.000206 7.986603 0.000000
vt 0.150206 7.900000 0.000000
vt 0.136809 7.950000 0.000000
vt 0.120917 7.970711 0.000000
vt 0.100206 7.986603 0.000000
vt 0.146799 7.925882 0.000000
vt 0.076088 7.996593 0.000000
vt -0.020504 7.970711 0.000000
vt -0.036396 7.950000 0.000000
vt -0.049794 7.900000 0.000000
vt -0.046386 7.925882 0.000000
vn 0.000000 0.000000 0.100000
vn 0.000000 0.000000 0.100000
vn 0.025882 0.000000 0.096593
vn 0.025882 0.000000 0.096593
vn 0.050000 0.000000 0.086603
vn 0.050000 0.000000 0.086603
vn 0.070711 0.000000 0.070711
vn 0.070711 0.000000 0.070711
vn 0.086603 0.000000 0.050000
vn 0.086603 0.000000 0.050000
vn 0.096593 0.000000 0.025882
vn 0.096593 0.000000 0.025882
vn 0.100000 0.000000 0.000000
vn 0.100000 0.000000 0.000000
vn 0.096593 0.000000 -0.025882
vn 0.096593 0.000000 -0.025882
vn 0.086603 0.000000 -0.050000
vn 0.086603 0.000000 -0.050000
vn 0.070711 0.000000 -0.070711
vn 0.070711 0.000000 -0.070711
vn 0.050000 0.000000 -0.086603
vn 0.050000 0.000000 -0.086603
vn 0.025882 0.000000 -0.096593
vn 0.025882 0.000000 -0.096593
vn -0.000000 0.000000 -0.100000
vn -0.000000 0.000000 -0.100000
vn 0.022136 0.009230 -0.097082
vn -0.000000 0.025882 -0.096593
vn 0.008167 0.029986 -0.095048
vn -0.000000 0.050000 -0.086603
vn 0.023972 0.041538 -0.087749
vn 0.006043 0.057886 -0.081318
vn 0.036476 0.053595 -0.076138
vn 0.015820 0.067314 -0.072239
vn 0.044826 0.065336 -0.061007
vn 0.022349 0.076495 -0.060407
vn 0.048453 0.075960 -0.043385
vn 0.025186 0.084803 -0.046628
vn 0.047110 0.084744 -0.024476
vn 0.024136 0.091671 -0.031841
vn 0.040854 0.091109 -0.005490
vn 0.019238 0.096651 -0.016983
vn 0.030214 0.094561 0.012056
vn 0.010923 0.099348 -0.003276
vn 0.015811 0.094926 0.027187
vn -0.000000 0.096593 0.025882
vn -0.000000 0.086603 0.050000
vn -0.000000 0.070711 -0.070711
vn -0.000000 0.086603 -0.050000
vn -0.000000 0.096593 -0.025882
vn -0.000000 0.100000 0.000000
vn -0.000000 0.070711 0.070711
vn 0.011158 0.081040 0.057516
vn 0.030965 0.084237 0.044105
vn 0.022950 0.064816 0.072610
vn -0.000000 0.050000 0.086603
vn 0.033296 0.044509 0.083128
vn 0.010047 0.037415 0.092191
vn 0.019680 0.014726 0.096932
vn -0.000000 0.025882 0.096593
vn 0.041545 0.021397 0.088409
vn 0.054587 0.047946 0.068712
vn 0.044168 0.068242 0.058243
vn 0.061988 0.067791 0.039521
vn 0.047600 0.083816 0.026627
vn 0.059899 0.079824 0.006344
vn 0.061568 0.024630 0.074852
vn 0.072470 0.047494 0.049925
vn 0.075172 0.063509 0.017773
vn 0.067117 0.072477 -0.015568
vn 0.078385 0.024204 0.057183
vn 0.085708 0.043191 0.028082
vn 0.082894 0.055644 -0.005679
vn 0.068668 0.062332 -0.037409
vn 0.090844 0.020153 0.036622
vn 0.093449 0.035305 0.004568
vn 0.084556 0.044776 -0.029076
vn 0.064478 0.050061 -0.057762
vn 0.098115 0.012741 0.014527
vn 0.095116 0.024399 -0.018911
vn 0.080068 0.031631 -0.050879
vn 0.054834 0.036500 -0.075240
vn 0.099683 0.002485 -0.007554
vn 0.090613 0.011208 -0.040789
vn 0.069736 0.017104 -0.069601
vn 0.040391 0.022573 -0.088651
vn 0.054266 0.002185 -0.083967
vn 0.000000 0.000000 0.100000
vn 0.000000 0.000000 0.100000
vn -0.000000 0.000000 -0.100000
vn -0.000000 0.025882 -0.096593
vn -0.000000 0.050000 -0.086603
vn -0.000000 0.070711 -0.070711
vn -0.000000 0.086603 -0.050000
vn -0.000000 0.096593 -0.025882
vn 0.000000 0.100000 0.000000
vn 0.000000 0.096593 0.025882
vn 0.000000 0.086603 0.050000
vn 0.000000 0.070711 0.070711
vn 0.000000 0.050000 0.086603
vn 0.000000 0.025882 0.096593
vn -0.100000 0.000000 0.000000
vn -0.100000 0.000000 0.000000
vn -0.100000 0.000000 0.000000
vn -0.100000 0.000000 0.000000
vn -0.100000 0.000000 0.000000
vn -0.100000 0.000000 0.000000
vn -0.100000 0.000000 0.000000
vn -0.100000 0.000000 0.000000
vn -0.100000 0.000000 0.000000
vn -0.100000 0.000000 0.000000
vn -0.100000 0.000000 0.000000
vn -0.100000 0.000000 0.000000
vn -0.100000 0.000000 0.000000
vn -0.100000 0.000000 0.000000
vn -0.100000 0.000000 0.000000
vn -0.000000 0.000000 -0.100000
vn 0.000000 -0.100000 0.000000
vn 0.000000 -0.100000 0.000000
vn 0.000000 -0.100000 0.000000
vn 0.000000 -0.100000 0.000000
vn 0.000000 -0.100000 0.000000
vn 0.000000 -0.100000 0.000000
vn 0.000000 -0.100000 0.000000
vn 0.000000 -0.100000 0.000000
vn 0.000000 -0.100000 0.000000
vn 0.000000 -0.100000 0.000000
vn 0.000000 -0.100000 0.000000
vn 0.000000 -0.100000 0.000000
vn 0.000000 -0.100000 0.000000
vn 0.000000 -0.100000 0.000000
vn 0.000000 -0.100000 0.000000
usemtl Steel_-_Satin
f 26/1/1 1/2/2 25/3/3
f 25/3/3 1/2/2 2/4/4
f 25/3/3 2/4/4 24/5/5
f 24/5/5 2/4/4 3/6/6
f 24/5/5 3/6/6 23/7/7
f 23/7/7 3/6/6 4/8/8
f 23/7/7 4/8/8 22/9/9
f 22/9/9 4/8/8 5/10/10
f 22/9/9 5/10/10 21/11/11
f 21/11/11 5/10/10 6/12/12
f 21/11/11 6/12/12 20/13/13
f 20/13/13 6/12/12 7/14/14
f 20/13/13 7/14/14 19/15/15
f 19/15/15 7/14/14 8/16/16
f 19/15/15 8/16/16 18/17/17
f 18/17/17 8/16/16 9/18/18
f 18/17/17 9/18/18 17/19/19
f 17/19/19 9/18/18 10/20/20
f 17/19/19 10/20/20 16/21/21
f 16/21/21 10/20/20 11/22/22
f 16/21/21 11/22/22 15/23/23
f 15/23/23 11/22/22 12/24/24
f 15/23/23 12/24/24 14/25/25
f 14/25/25 12/24/24 13/26/26
f 15/27/23 14/28/25 42/29/27
f 42/29/27 14/28/25 27/30/28
f 42/29/27 27/30/28 41/31/29
f 41/31/29 27/30/28 28/32/30
f 41/31/29 28/32/30 44/33/31
f 44/33/31 28/32/30 43/34/32
f 44/33/31 43/34/32 47/35/33
f 47/35/33 43/34/32 38/36/34
f 47/35/33 38/36/34 53/37/35
f 53/37/35 38/36/34 54/38/36
f 53/37/35 54/38/36 56/39/37
f 56/39/37 54/38/36 55/40/38
f 56/39/37 55/40/38 87/41/39
f 87/41/39 55/40/38 39/42/40
f 87/41/39 39/42/40 65/43/41
f 65/43/41 39/42/40 66/44/42
f 65/43/41 66/44/42 68/45/43
f 68/45/43 66/44/42 67/46/44
f 68/45/43 67/46/44 73/47/45
f 73/47/45 67/46/44 33/48/46
f 73/47/45 33/48/46 34/49/47
f 28/32/30 29/50/48 43/34/32
f 43/34/32 29/50/48 38/36/34
f 29/50/48 30/51/49 38/36/34
f 38/36/34 30/51/49 54/38/36
f 31/52/50 39/42/40 30/51/49
f 30/51/49 39/42/40 55/40/38
f 30/51/49 55/40/38 54/38/36
f 32/53/51 67/46/44 31/52/50
f 31/52/50 67/46/44 66/44/42
f 31/52/50 66/44/42 39/42/40
f 32/53/51 33/48/46 67/46/44
f 35/54/52 78/55/53 34/49/47
f 34/49/47 78/55/53 74/56/54
f 34/49/47 74/56/54 73/47/45
f 73/47/45 74/56/54 68/45/43
f 78/55/53 35/54/52 79/57/55
f 79/57/55 35/54/52 36/58/56
f 79/57/55 36/58/56 80/59/57
f 80/59/57 36/58/56 82/60/58
f 80/59/57 82/60/58 40/61/59
f 40/61/59 82/60/58 37/62/60
f 40/61/59 37/62/60 26/63/1
f 36/58/56 37/62/60 82/60/58
f 26/63/1 25/64/3 40/61/59
f 40/61/59 25/64/3 81/65/61
f 40/61/59 81/65/61 80/59/57
f 80/59/57 81/65/61 76/66/62
f 80/59/57 76/66/62 75/67/63
f 75/67/63 76/66/62 70/68/64
f 75/67/63 70/68/64 69/69/65
f 69/69/65 70/68/64 64/70/66
f 69/69/65 64/70/66 65/43/41
f 65/43/41 64/70/66 87/41/39
f 25/64/3 24/71/5 81/65/61
f 81/65/61 24/71/5 77/72/67
f 81/65/61 77/72/67 76/66/62
f 76/66/62 77/72/67 71/73/68
f 76/66/62 71/73/68 70/68/64
f 70/68/64 71/73/68 63/74/69
f 70/68/64 63/74/69 64/70/66
f 64/70/66 63/74/69 86/75/70
f 64/70/66 86/75/70 87/41/39
f 87/41/39 86/75/70 56/39/37
f 24/71/5 23/76/7 77/72/67
f 77/72/67 23/76/7 72/77/71
f 77/72/67 72/77/71 71/73/68
f 71/73/68 72/77/71 62/78/72
f 71/73/68 62/78/72 63/74/69
f 63/74/69 62/78/72 85/79/73
f 63/74/69 85/79/73 86/75/70
f 86/75/70 85/79/73 57/80/74
f 86/75/70 57/80/74 56/39/37
f 56/39/37 57/80/74 53/37/35
f 23/76/7 22/81/9 72/77/71
f 72/77/71 22/81/9 61/82/75
f 72/77/71 61/82/75 62/78/72
f 62/78/72 61/82/75 84/83/76
f 62/78/72 84/83/76 85/79/73
f 85/79/73 84/83/76 58/84/77
f 85/79/73 58/84/77 57/80/74
f 57/80/74 58/84/77 52/85/78
f 57/80/74 52/85/78 53/37/35
f 53/37/35 52/85/78 47/35/33
f 22/81/9 21/86/11 61/82/75
f 61/82/75 21/86/11 83/87/79
f 61/82/75 83/87/79 84/83/76
f 84/83/76 83/87/79 59/88/80
f 84/83/76 59/88/80 58/84/77
f 58/84/77 59/88/80 51/89/81
f 58/84/77 51/89/81 52/85/78
f 52/85/78 51/89/81 48/90/82
f 52/85/78 48/90/82 47/35/33
f 47/35/33 48/90/82 44/33/31
f 21/86/11 20/91/13 83/87/79
f 83/87/79 20/91/13 60/92/83
f 83/87/79 60/92/83 59/88/80
f 59/88/80 60/92/83 19/93/15
f 59/88/80 19/93/15 50/94/84
f 50/94/84 19/93/15 18/95/17
f 50/94/84 18/95/17 51/89/81
f 51/89/81 18/95/17 49/96/85
f 51/89/81 49/96/85 48/90/82
f 48/90/82 49/96/85 45/97/86
f 48/90/82 45/97/86 44/33/31
f 44/33/31 45/97/86 41/31/29
f 20/91/13 19/93/15 60/92/83
f 18/95/17 17/98/19 49/96/85
f 49/96/85 17/98/19 46/99/87
f 49/96/85 46/99/87 45/97/86
f 45/97/86 46/99/87 16/100/21
f 45/97/86 16/100/21 15/27/23
f 17/98/19 16/100/21 46/99/87
f 45/97/86 15/27/23 42/29/27
f 45/97/86 42/29/27 41/31/29
f 50/94/84 51/89/81 59/88/80
f 69/69/65 65/43/41 68/45/43
f 75/67/63 69/69/65 74/56/54
f 74/56/54 69/69/65 68/45/43
f 78/55/53 79/57/55 74/56/54
f 74/56/54 79/57/55 75/67/63
f 79/57/55 80/59/57 75/67/63
f 88/101/88 1/102/2 89/103/89
f 89/103/89 1/102/2 26/104/1
f 14/105/25 90/106/90 27/107/28
f 27/107/28 90/106/90 91/108/91
f 27/107/28 91/108/91 28/109/30
f 28/109/30 91/108/91 92/110/92
f 28/109/30 92/110/92 29/111/48
f 29/111/48 92/110/92 93/112/93
f 29/111/48 93/112/93 30/113/49
f 30/113/49 93/112/93 94/114/94
f 30/113/49 94/114/94 31/115/50
f 31/115/50 94/114/94 95/116/95
f 31/115/50 95/116/95 32/117/51
f 32/117/51 95/116/95 96/118/96
f 32/117/51 96/118/96 33/119/46
f 33/119/46 96/118/96 97/120/97
f 33/119/46 97/120/97 34/121/47
f 34/121/47 97/120/97 98/122/98
f 34/121/47 98/122/98 35/123/52
f 35/123/52 98/122/98 99/124/99
f 35/123/52 99/124/99 36/125/56
f 36/125/56 99/124/99 100/126/100
f 36/125/56 100/126/100 37/127/60
f 37/127/60 100/126/100 101/128/101
f 37/127/60 101/128/101 26/129/1
f 26/129/1 101/128/101 89/130/89
f 88/131/102 96/132/103 102/133/104
f 102/133/104 96/132/103 95/134/105
f 102/133/104 95/134/105 94/135/106
f 89/136/107 100/137/108 88/131/102
f 88/131/102 100/137/108 99/138/109
f 88/131/102 99/138/109 98/139/110
f 89/136/107 101/140/111 100/137/108
f 98/139/110 97/141/112 88/131/102
f 88/131/102 97/141/112 96/132/103
f 94/135/106 93/142/113 102/133/104
f 102/133/104 93/142/113 92/143/114
f 102/133/104 92/143/114 90/144/115
f 90/144/115 92/143/114 91/145/116
f 13/146/26 102/147/117 14/148/25
f 14/148/25 102/147/117 90/149/90
f 102/150/118 7/151/119 88/152/120
f 88/152/120 7/151/119 6/153/121
f 88/152/120 6/153/121 5/154/122
f 13/155/123 11/156/124 102/150/118
f 102/150/118 11/156/124 10/157/125
f 102/150/118 10/157/125 9/158/126
f 13/155/123 12/159/127 11/156/124
f 9/158/126 8/160/128 102/150/118
f 102/150/118 8/160/128 7/151/119
f 5/154/122 4/161/129 88/152/120
f 88/152/120 4/161/129 3/162/130
f 88/152/120 3/162/130 1/163/131
f 1/163/131 3/162/130 2/164/132
# 102 vertices
# 164 texture params
# 132 normals
# 200 facets

# 1 groups
