# WaveFront *.obj file (generated by Autodesk ATF)

mtllib 8a55ed72-28f4-4e37-9747-76c627f2e0b4.mtl

g Body1

v -159.000000 80.000000 2.000000
v -80.000000 80.000000 2.000000
v -80.000000 159.000000 2.000000
v -159.000000 159.000000 2.000000
v -80.000000 159.258819 1.965926
v -80.000000 159.500000 1.866025
v -80.000000 159.707107 1.707107
v -80.000000 159.866025 1.500000
v -80.000000 159.965926 1.258819
v -80.000000 160.000000 1.000000
v -80.000000 159.965926 0.741181
v -80.000000 159.866025 0.500000
v -80.000000 159.707107 0.292893
v -80.000000 159.500000 0.133975
v -80.000000 159.258819 0.034074
v -80.000000 159.000000 0.000000
v -159.000000 159.000000 0.000000
v -159.000000 159.258819 0.034074
v -159.000000 159.500000 0.133975
v -159.000000 159.707107 0.292893
v -159.000000 159.866025 0.500000
v -159.000000 159.965926 0.741181
v -159.000000 160.000000 1.000000
v -159.000000 159.965926 1.258819
v -159.000000 159.866025 1.500000
v -159.000000 159.707107 1.707107
v -159.000000 159.500000 1.866025
v -159.000000 159.258819 1.965926
v -159.258819 159.000000 0.034074
v -159.500000 159.000000 0.133975
v -159.707107 159.000000 0.292893
v -159.866025 159.000000 0.500000
v -159.965926 159.000000 0.741181
v -160.000000 159.000000 1.000000
v -159.965926 159.000000 1.258819
v -159.866025 159.000000 1.500000
v -159.707107 159.000000 1.707107
v -159.500000 159.000000 1.866025
v -159.258819 159.000000 1.965926
v -159.916711 159.241357 0.681587
v -159.673143 159.158200 0.277607
v -159.299859 159.081668 0.049519
v -159.092297 159.221356 0.029184
v -159.578860 159.060427 0.186815
v -159.415381 159.239722 0.122508
v -159.225729 159.403914 0.113490
v -159.021854 159.542655 0.160329
v -159.535954 159.364760 0.238617
v -159.364996 159.548337 0.247600
v -159.171040 159.697364 0.303991
v -159.112081 159.906125 0.592110
v -159.316309 159.800678 0.491214
v -159.500607 159.644782 0.422377
v -159.653362 159.448260 0.389934
v -159.764951 159.223494 0.395930
v -159.848028 159.251857 0.533720
v -159.759605 159.484532 0.566146
v -159.623320 159.686678 0.625908
v -159.447762 159.845558 0.709241
v -159.243991 159.951161 0.810894
v -159.024847 159.996833 0.924462
v -159.201531 159.908442 1.366221
v -159.431914 159.857083 1.280819
v -159.635087 159.751715 1.177734
v -159.798240 159.598990 1.063436
v -159.911088 159.408541 0.945104
v -159.966514 159.192378 0.830172
v -159.993477 159.109231 0.967244
v -159.945611 159.302136 1.120556
v -159.838165 159.476003 1.266272
v -159.677907 159.619879 1.395211
v -159.474936 159.724698 1.499248
v -159.242041 159.783854 1.571829
v -159.949256 159.158109 1.271872
v -159.842375 159.309647 1.441048
v -159.682417 159.441675 1.582434
v -159.479462 159.545874 1.687123
v -159.246297 159.615679 1.748517
v -159.810396 159.111580 1.575159
v -159.648161 159.229502 1.726096
v -159.445087 159.332963 1.831284
v -159.213969 159.415445 1.884094
v -159.374154 159.100474 1.921908
v -159.147260 159.196800 1.969322
v -159.127410 159.981155 1.145267
v -159.353048 159.934490 1.045679
v -159.556441 159.828944 0.943213
v -159.724774 159.671169 0.844324
v -159.847440 159.471105 0.755245
v -159.000000 80.000000 0.000000
v -159.258819 80.000000 0.034074
v -159.500000 80.000000 0.133975
v -159.707107 80.000000 0.292893
v -159.866025 80.000000 0.500000
v -159.965926 80.000000 0.741181
v -160.000000 80.000000 1.000000
v -159.965926 80.000000 1.258819
v -159.866025 80.000000 1.500000
v -159.707107 80.000000 1.707107
v -159.500000 80.000000 1.866025
v -159.258819 80.000000 1.965926
v -80.000000 80.000000 0.000000
vt -7.900000 0.000000 0.000000
vt 0.000000 0.000000 0.000000
vt -7.900000 7.900000 0.000000
vt 0.000000 7.900000 0.000000
vt 11.900000 0.235619 0.000000
vt 4.000000 0.235619 0.000000
vt 11.900000 0.209440 0.000000
vt 4.000000 0.209440 0.000000
vt 11.900000 0.183260 0.000000
vt 4.000000 0.183260 0.000000
vt 11.900000 0.157080 0.000000
vt 4.000000 0.157080 0.000000
vt 11.900000 0.130900 0.000000
vt 4.000000 0.130900 0.000000
vt 11.900000 0.104720 0.000000
vt 4.000000 0.104720 0.000000
vt 11.900000 0.078540 0.000000
vt 4.000000 0.078540 0.000000
vt 11.900000 0.052360 0.000000
vt 4.000000 0.052360 0.000000
vt 11.900000 0.026180 0.000000
vt 4.000000 0.026180 0.000000
vt 11.900000 0.000000 0.000000
vt 4.000000 0.000000 0.000000
vt 11.900000 -0.026180 0.000000
vt 4.000000 -0.026180 0.000000
vt 11.900000 -0.052360 0.000000
vt 4.000000 -0.052360 0.000000
vt 11.900000 -0.078540 0.000000
vt 4.000000 -0.078540 0.000000
vt -0.029284 0.194089 0.000000
vt -0.042053 0.217655 0.000000
vt -0.039123 0.192392 0.000000
vt -0.065060 0.203568 0.000000
vt -0.064291 0.192392 0.000000
vt -0.086609 0.183646 0.000000
vt -0.064291 0.167128 0.000000
vt -0.089459 0.167128 0.000000
vt -0.064291 0.141865 0.000000
vt -0.089459 0.141865 0.000000
vt -0.064291 0.116601 0.000000
vt -0.089459 0.116601 0.000000
vt -0.064291 0.091338 0.000000
vt -0.089459 0.091338 0.000000
vt -0.064291 0.066075 0.000000
vt -0.089459 0.066075 0.000000
vt -0.064291 0.040707 0.000000
vt -0.089459 0.040686 0.000000
vt -0.064291 0.015548 0.000000
vt -0.089459 0.015548 0.000000
vt -0.064291 -0.009715 0.000000
vt -0.075188 -0.024439 0.000000
vt -0.052705 -0.040667 0.000000
vt -0.104720 0.151580 0.000000
vt -0.114626 0.099592 0.000000
vt -0.110695 0.040667 0.000000
vt -0.095532 0.000000 0.000000
vt -0.039123 -0.034979 0.000000
vt -0.029284 -0.053023 0.000000
vt -0.013955 -0.034979 0.000000
vt -0.005472 -0.063711 0.000000
vt 0.011212 -0.034979 0.000000
vt 0.011212 -0.060242 0.000000
vt 0.036380 -0.060242 0.000000
vt 0.018405 -0.074118 0.000000
vt 0.042053 -0.085506 0.000000
vt 0.052360 -0.059393 0.000000
vt 0.036380 -0.034979 0.000000
vt 0.011212 -0.009715 0.000000
vt -0.013955 -0.009715 0.000000
vt -0.013955 0.015548 0.000000
vt -0.039123 0.015548 0.000000
vt -0.039123 0.040729 0.000000
vt 0.059159 -0.030599 0.000000
vt 0.036380 -0.009715 0.000000
vt 0.011212 0.015548 0.000000
vt -0.013955 0.040751 0.000000
vt -0.039123 0.066075 0.000000
vt 0.061548 -0.000000 0.000000
vt 0.036380 0.015548 0.000000
vt 0.011212 0.040772 0.000000
vt -0.013955 0.066075 0.000000
vt -0.039123 0.091338 0.000000
vt 0.059159 0.030599 0.000000
vt 0.036380 0.040794 0.000000
vt 0.011212 0.066075 0.000000
vt -0.013955 0.091338 0.000000
vt -0.039123 0.116601 0.000000
vt 0.052360 0.059393 0.000000
vt 0.036380 0.066075 0.000000
vt 0.011212 0.091338 0.000000
vt -0.013955 0.116601 0.000000
vt -0.039123 0.141865 0.000000
vt 0.042053 0.085506 0.000000
vt 0.036380 0.091338 0.000000
vt 0.029284 0.109071 0.000000
vt 0.011212 0.116601 0.000000
vt 0.014999 0.130796 0.000000
vt -0.013955 0.141865 0.000000
vt -0.039123 0.167128 0.000000
vt 0.000000 0.151580 0.000000
vt -0.013955 0.167128 0.000000
vt -0.014999 0.172365 0.000000
vt -0.039123 -0.009715 0.000000
vt -3.900000 -0.078540 0.000000
vt 4.000000 -0.078540 0.000000
vt -3.900000 -0.052360 0.000000
vt 4.000000 -0.052360 0.000000
vt -3.900000 -0.026180 0.000000
vt 4.000000 -0.026180 0.000000
vt -3.900000 0.000000 0.000000
vt 4.000000 0.000000 0.000000
vt -3.900000 0.026180 0.000000
vt 4.000000 0.026180 0.000000
vt -3.900000 0.052360 0.000000
vt 4.000000 0.052360 0.000000
vt -3.900000 0.078540 0.000000
vt 4.000000 0.078540 0.000000
vt -3.900000 0.104720 0.000000
vt 4.000000 0.104720 0.000000
vt -3.900000 0.130900 0.000000
vt 4.000000 0.130900 0.000000
vt -3.900000 0.157080 0.000000
vt 4.000000 0.157080 0.000000
vt -3.900000 0.183260 0.000000
vt 4.000000 0.183260 0.000000
vt -3.900000 0.209440 0.000000
vt 4.000000 0.209440 0.000000
vt -3.900000 0.235619 0.000000
vt 4.000000 0.235619 0.000000
vt -0.000000 0.000000 0.000000
vt 7.900000 0.000000 0.000000
vt -0.000000 7.900000 0.000000
vt 7.900000 7.900000 0.000000
vt 0.150206 0.000206 0.000000
vt 0.050206 8.000206 0.000000
vt -0.049794 0.000206 0.000000
vt 0.024325 7.996799 0.000000
vt 0.000206 7.986809 0.000000
vt 0.150206 7.900206 0.000000
vt 0.136809 7.950206 0.000000
vt 0.120917 7.970917 0.000000
vt 0.100206 7.986809 0.000000
vt 0.146799 7.926088 0.000000
vt 0.076088 7.996799 0.000000
vt -0.020504 7.970917 0.000000
vt -0.036396 7.950206 0.000000
vt -0.049794 7.900206 0.000000
vt -0.046386 7.926088 0.000000
vt 0.146799 -7.925882 0.000000
vt 0.150206 -7.900000 0.000000
vt 0.136809 -7.950000 0.000000
vt 0.150206 -0.000000 0.000000
vt 0.120917 -7.970711 0.000000
vt 0.100206 -7.986603 0.000000
vt 0.076088 -7.996593 0.000000
vt 0.050206 -8.000000 0.000000
vt -0.049794 -0.000000 0.000000
vt 0.024325 -7.996593 0.000000
vt 0.000206 -7.986603 0.000000
vt -0.020504 -7.970711 0.000000
vt -0.036396 -7.950000 0.000000
vt -0.049794 -7.900000 0.000000
vt -0.046386 -7.925882 0.000000
vn 0.000000 0.000000 0.100000
vn 0.000000 0.000000 0.100000
vn 0.000000 0.000000 0.100000
vn 0.000000 0.000000 0.100000
vn 0.000000 0.025882 0.096593
vn 0.000000 0.025882 0.096593
vn 0.000000 0.050000 0.086603
vn 0.000000 0.050000 0.086603
vn 0.000000 0.070711 0.070711
vn 0.000000 0.070711 0.070711
vn 0.000000 0.086603 0.050000
vn 0.000000 0.086603 0.050000
vn 0.000000 0.096593 0.025882
vn 0.000000 0.096593 0.025882
vn 0.000000 0.100000 0.000000
vn 0.000000 0.100000 0.000000
vn -0.000000 0.096593 -0.025882
vn -0.000000 0.096593 -0.025882
vn -0.000000 0.086603 -0.050000
vn -0.000000 0.086603 -0.050000
vn -0.000000 0.070711 -0.070711
vn -0.000000 0.070711 -0.070711
vn -0.000000 0.050000 -0.086603
vn -0.000000 0.050000 -0.086603
vn -0.000000 0.025882 -0.096593
vn -0.000000 0.025882 -0.096593
vn -0.000000 0.000000 -0.100000
vn -0.000000 0.000000 -0.100000
vn -0.009230 0.022136 -0.097082
vn -0.025882 0.000000 -0.096593
vn -0.029986 0.008167 -0.095048
vn -0.050000 0.000000 -0.086603
vn -0.041538 0.023972 -0.087749
vn -0.057886 0.006043 -0.081318
vn -0.053595 0.036476 -0.076138
vn -0.067314 0.015820 -0.072239
vn -0.065336 0.044826 -0.061007
vn -0.076495 0.022349 -0.060407
vn -0.075960 0.048453 -0.043385
vn -0.084803 0.025186 -0.046628
vn -0.084744 0.047110 -0.024476
vn -0.091671 0.024136 -0.031841
vn -0.091109 0.040854 -0.005490
vn -0.096651 0.019238 -0.016983
vn -0.094561 0.030214 0.012056
vn -0.099348 0.010923 -0.003276
vn -0.094926 0.015811 0.027187
vn -0.096593 0.000000 0.025882
vn -0.086603 0.000000 0.050000
vn -0.070711 0.000000 -0.070711
vn -0.086603 0.000000 -0.050000
vn -0.096593 0.000000 -0.025882
vn -0.100000 0.000000 0.000000
vn -0.081040 0.011158 0.057516
vn -0.070711 -0.000000 0.070711
vn -0.064816 0.022950 0.072610
vn -0.050000 -0.000000 0.086603
vn -0.044509 0.033296 0.083128
vn -0.037415 0.010047 0.092191
vn -0.014726 0.019680 0.096932
vn -0.025882 -0.000000 0.096593
vn -0.021397 0.041545 0.088409
vn -0.047946 0.054587 0.068712
vn -0.068242 0.044168 0.058243
vn -0.067791 0.061988 0.039521
vn -0.083816 0.047600 0.026627
vn -0.079824 0.059899 0.006344
vn -0.024630 0.061568 0.074852
vn -0.047494 0.072470 0.049925
vn -0.063509 0.075172 0.017773
vn -0.072477 0.067117 -0.015568
vn -0.024204 0.078385 0.057183
vn -0.043191 0.085708 0.028082
vn -0.055644 0.082894 -0.005679
vn -0.062332 0.068668 -0.037409
vn -0.020153 0.090844 0.036622
vn -0.035305 0.093449 0.004568
vn -0.044776 0.084556 -0.029076
vn -0.050061 0.064478 -0.057762
vn -0.012741 0.098115 0.014527
vn -0.024399 0.095116 -0.018911
vn -0.031631 0.080068 -0.050879
vn -0.036500 0.054834 -0.075240
vn -0.002485 0.099683 -0.007554
vn -0.011208 0.090613 -0.040789
vn -0.017104 0.069736 -0.069601
vn -0.022573 0.040391 -0.088651
vn -0.002185 0.054266 -0.083967
vn -0.084237 0.030965 0.044105
vn -0.000000 0.000000 -0.100000
vn -0.025882 0.000000 -0.096593
vn -0.050000 0.000000 -0.086603
vn -0.070711 0.000000 -0.070711
vn -0.086603 0.000000 -0.050000
vn -0.096593 0.000000 -0.025882
vn -0.100000 0.000000 0.000000
vn -0.096593 0.000000 0.025882
vn -0.086603 0.000000 0.050000
vn -0.070711 0.000000 0.070711
vn -0.050000 0.000000 0.086603
vn -0.025882 0.000000 0.096593
vn -0.000000 0.000000 -0.100000
vn 0.100000 0.000000 0.000000
vn 0.100000 0.000000 0.000000
vn 0.100000 0.000000 0.000000
vn 0.100000 0.000000 0.000000
vn 0.100000 0.000000 0.000000
vn 0.100000 0.000000 0.000000
vn 0.100000 0.000000 0.000000
vn 0.100000 0.000000 0.000000
vn 0.100000 0.000000 0.000000
vn 0.100000 0.000000 0.000000
vn 0.100000 0.000000 0.000000
vn 0.100000 0.000000 0.000000
vn 0.100000 0.000000 0.000000
vn 0.100000 0.000000 0.000000
vn 0.100000 0.000000 0.000000
vn 0.000000 -0.100000 0.000000
vn 0.000000 -0.100000 0.000000
vn 0.000000 -0.100000 0.000000
vn 0.000000 -0.100000 0.000000
vn 0.000000 -0.100000 0.000000
vn 0.000000 -0.100000 0.000000
vn 0.000000 -0.100000 0.000000
vn 0.000000 -0.100000 0.000000
vn 0.000000 -0.100000 0.000000
vn 0.000000 -0.100000 0.000000
vn 0.000000 -0.100000 0.000000
vn 0.000000 -0.100000 0.000000
vn 0.000000 -0.100000 0.000000
vn 0.000000 -0.100000 0.000000
vn 0.000000 -0.100000 0.000000
usemtl Steel_-_Satin
f 1/1/1 2/2/2 4/3/3
f 4/3/3 2/2/2 3/4/4
f 4/5/3 3/6/4 28/7/5
f 28/7/5 3/6/4 5/8/6
f 28/7/5 5/8/6 27/9/7
f 27/9/7 5/8/6 6/10/8
f 27/9/7 6/10/8 26/11/9
f 26/11/9 6/10/8 7/12/10
f 26/11/9 7/12/10 25/13/11
f 25/13/11 7/12/10 8/14/12
f 25/13/11 8/14/12 24/15/13
f 24/15/13 8/14/12 9/16/14
f 24/15/13 9/16/14 23/17/15
f 23/17/15 9/16/14 10/18/16
f 23/17/15 10/18/16 22/19/17
f 22/19/17 10/18/16 11/20/18
f 22/19/17 11/20/18 21/21/19
f 21/21/19 11/20/18 12/22/20
f 21/21/19 12/22/20 20/23/21
f 20/23/21 12/22/20 13/24/22
f 20/23/21 13/24/22 19/25/23
f 19/25/23 13/24/22 14/26/24
f 19/25/23 14/26/24 18/27/25
f 18/27/25 14/26/24 15/28/26
f 18/27/25 15/28/26 17/29/27
f 17/29/27 15/28/26 16/30/28
f 18/31/25 17/32/27 43/33/29
f 43/33/29 17/32/27 29/34/30
f 43/33/29 29/34/30 42/35/31
f 42/35/31 29/34/30 30/36/32
f 42/35/31 30/36/32 45/37/33
f 45/37/33 30/36/32 44/38/34
f 45/37/33 44/38/34 48/39/35
f 48/39/35 44/38/34 41/40/36
f 48/39/35 41/40/36 54/41/37
f 54/41/37 41/40/36 55/42/38
f 54/41/37 55/42/38 57/43/39
f 57/43/39 55/42/38 56/44/40
f 57/43/39 56/44/40 89/45/41
f 89/45/41 56/44/40 40/46/42
f 89/45/41 40/46/42 66/47/43
f 66/47/43 40/46/42 67/48/44
f 66/47/43 67/48/44 69/49/45
f 69/49/45 67/48/44 68/50/46
f 69/49/45 68/50/46 74/51/47
f 74/51/47 68/50/46 35/52/48
f 74/51/47 35/52/48 36/53/49
f 30/36/32 31/54/50 44/38/34
f 44/38/34 31/54/50 41/40/36
f 31/54/50 32/55/51 41/40/36
f 41/40/36 32/55/51 55/42/38
f 33/56/52 40/46/42 32/55/51
f 32/55/51 40/46/42 56/44/40
f 32/55/51 56/44/40 55/42/38
f 34/57/53 68/50/46 33/56/52
f 33/56/52 68/50/46 67/48/44
f 33/56/52 67/48/44 40/46/42
f 34/57/53 35/52/48 68/50/46
f 74/51/47 36/53/49 79/58/54
f 79/58/54 36/53/49 37/59/55
f 79/58/54 37/59/55 80/60/56
f 80/60/56 37/59/55 38/61/57
f 80/60/56 38/61/57 81/62/58
f 81/62/58 38/61/57 83/63/59
f 81/62/58 83/63/59 84/64/60
f 84/64/60 83/63/59 39/65/61
f 84/64/60 39/65/61 4/66/3
f 38/61/57 39/65/61 83/63/59
f 4/66/3 28/67/5 84/64/60
f 84/64/60 28/67/5 82/68/62
f 84/64/60 82/68/62 81/62/58
f 81/62/58 82/68/62 77/69/63
f 81/62/58 77/69/63 76/70/64
f 76/70/64 77/69/63 71/71/65
f 76/70/64 71/71/65 70/72/66
f 70/72/66 71/71/65 65/73/67
f 70/72/66 65/73/67 66/47/43
f 66/47/43 65/73/67 89/45/41
f 28/67/5 27/74/7 82/68/62
f 82/68/62 27/74/7 78/75/68
f 82/68/62 78/75/68 77/69/63
f 77/69/63 78/75/68 72/76/69
f 77/69/63 72/76/69 71/71/65
f 71/71/65 72/76/69 64/77/70
f 71/71/65 64/77/70 65/73/67
f 65/73/67 64/77/70 88/78/71
f 65/73/67 88/78/71 89/45/41
f 89/45/41 88/78/71 57/43/39
f 27/74/7 26/79/9 78/75/68
f 78/75/68 26/79/9 73/80/72
f 78/75/68 73/80/72 72/76/69
f 72/76/69 73/80/72 63/81/73
f 72/76/69 63/81/73 64/77/70
f 64/77/70 63/81/73 87/82/74
f 64/77/70 87/82/74 88/78/71
f 88/78/71 87/82/74 58/83/75
f 88/78/71 58/83/75 57/43/39
f 57/43/39 58/83/75 54/41/37
f 26/79/9 25/84/11 73/80/72
f 73/80/72 25/84/11 62/85/76
f 73/80/72 62/85/76 63/81/73
f 63/81/73 62/85/76 86/86/77
f 63/81/73 86/86/77 87/82/74
f 87/82/74 86/86/77 59/87/78
f 87/82/74 59/87/78 58/83/75
f 58/83/75 59/87/78 53/88/79
f 58/83/75 53/88/79 54/41/37
f 54/41/37 53/88/79 48/39/35
f 25/84/11 24/89/13 62/85/76
f 62/85/76 24/89/13 85/90/80
f 62/85/76 85/90/80 86/86/77
f 86/86/77 85/90/80 60/91/81
f 86/86/77 60/91/81 59/87/78
f 59/87/78 60/91/81 52/92/82
f 59/87/78 52/92/82 53/88/79
f 53/88/79 52/92/82 49/93/83
f 53/88/79 49/93/83 48/39/35
f 48/39/35 49/93/83 45/37/33
f 24/89/13 23/94/15 85/90/80
f 85/90/80 23/94/15 61/95/84
f 85/90/80 61/95/84 60/91/81
f 60/91/81 61/95/84 22/96/17
f 60/91/81 22/96/17 51/97/85
f 51/97/85 22/96/17 21/98/19
f 51/97/85 21/98/19 52/92/82
f 52/92/82 21/98/19 50/99/86
f 52/92/82 50/99/86 49/93/83
f 49/93/83 50/99/86 46/100/87
f 49/93/83 46/100/87 45/37/33
f 45/37/33 46/100/87 42/35/31
f 23/94/15 22/96/17 61/95/84
f 21/98/19 20/101/21 50/99/86
f 50/99/86 20/101/21 47/102/88
f 50/99/86 47/102/88 46/100/87
f 46/100/87 47/102/88 19/103/23
f 46/100/87 19/103/23 18/31/25
f 20/101/21 19/103/23 47/102/88
f 46/100/87 18/31/25 43/33/29
f 46/100/87 43/33/29 42/35/31
f 51/97/85 52/92/82 60/91/81
f 70/72/66 66/47/43 69/49/45
f 70/72/66 69/49/45 75/104/89
f 75/104/89 69/49/45 74/51/47
f 75/104/89 74/51/47 79/58/54
f 70/72/66 75/104/89 76/70/64
f 76/70/64 75/104/89 80/60/56
f 76/70/64 80/60/56 81/62/58
f 80/60/56 75/104/89 79/58/54
f 17/105/27 90/106/90 29/107/30
f 29/107/30 90/106/90 91/108/91
f 29/107/30 91/108/91 30/109/32
f 30/109/32 91/108/91 92/110/92
f 30/109/32 92/110/92 31/111/50
f 31/111/50 92/110/92 93/112/93
f 31/111/50 93/112/93 32/113/51
f 32/113/51 93/112/93 94/114/94
f 32/113/51 94/114/94 33/115/52
f 33/115/52 94/114/94 95/116/95
f 33/115/52 95/116/95 34/117/53
f 34/117/53 95/116/95 96/118/96
f 34/117/53 96/118/96 35/119/48
f 35/119/48 96/118/96 97/120/97
f 35/119/48 97/120/97 36/121/49
f 36/121/49 97/120/97 98/122/98
f 36/121/49 98/122/98 37/123/55
f 37/123/55 98/122/98 99/124/99
f 37/123/55 99/124/99 38/125/57
f 38/125/57 99/124/99 100/126/100
f 38/125/57 100/126/100 39/127/61
f 39/127/61 100/126/100 101/128/101
f 39/127/61 101/128/101 4/129/3
f 4/129/3 101/128/101 1/130/1
f 102/131/102 90/132/90 16/133/28
f 16/133/28 90/132/90 17/134/27
f 102/135/103 10/136/104 2/137/105
f 2/137/105 10/136/104 9/138/106
f 2/137/105 9/138/106 8/139/107
f 16/140/108 14/141/109 102/135/103
f 102/135/103 14/141/109 13/142/110
f 102/135/103 13/142/110 12/143/111
f 16/140/108 15/144/112 14/141/109
f 12/143/111 11/145/113 102/135/103
f 102/135/103 11/145/113 10/136/104
f 8/139/107 7/146/114 2/137/105
f 2/137/105 7/146/114 6/147/115
f 2/137/105 6/147/115 3/148/116
f 3/148/116 6/147/115 5/149/117
f 91/150/118 90/151/119 92/152/120
f 92/152/120 90/151/119 102/153/121
f 92/152/120 102/153/121 93/154/122
f 93/154/122 102/153/121 94/155/123
f 94/155/123 102/153/121 95/156/124
f 95/156/124 102/153/121 96/157/125
f 96/157/125 102/153/121 2/158/126
f 96/157/125 2/158/126 97/159/127
f 97/159/127 2/158/126 98/160/128
f 98/160/128 2/158/126 99/161/129
f 99/161/129 2/158/126 100/162/130
f 100/162/130 2/158/126 1/163/131
f 100/162/130 1/163/131 101/164/132
# 102 vertices
# 164 texture params
# 132 normals
# 200 facets

# 1 groups
